<?xml version="1.0" ?><svg xmlns="http://www.w3.org/2000/svg" xmlns:xlink="http://www.w3.org/1999/xlink" version="1.1" id="Icons" viewBox="0 0 32 32" style="enable-background:new 0 0 32 32;" xml:space="preserve"><style type="text/css">
	.st0{fill:#384970;}
</style><path class="st0" d="M26,19h-2l0.01-16H26c1.65,0,3,1.35,3,3v10C29,17.65,27.65,19,26,19z"/><path class="st0" d="M3,17.31c0-0.28,0.03-0.56,0.09-0.83l2.22-9.6C5.84,4.59,7.84,3,10.18,3h11.83L22,18.84  c0,0.72-0.2,1.43-0.57,2.06l-3.81,6.35c-1,1.66-3.27,2.35-5.11,1.14C11.54,27.75,11,26.66,11,25.5c0-0.46,0.08-0.9,0.25-1.33  L12.52,21H6.69C4.66,21,3,19.34,3,17.31z"/></svg>